<svg xmlns:mydata="http://www.w3.org/2000/svg" mydata:contrastcolor="11111f" mydata:template="Contrast"
     mydata:presentation="2.5" mydata:layouttype="undefined" mydata:specialfontid="undefined" mydata:id1="248"
     mydata:id2="835" mydata:companyname="flashcards" mydata:companytagline="" version="1.1"
     xmlns="http://www.w3.org/2000/svg"
     viewBox="0 45 550 380">
    <g fill="#41b6e6" fill-rule="none" stroke="none" stroke-width="1" stroke-linecap="butt" stroke-linejoin="miter"
       stroke-miterlimit="10" stroke-dasharray="" stroke-dashoffset="0" font-family="none" font-weight="none"
       font-size="none" text-anchor="none" style="mix-blend-mode: normal">
        <g data-paper-data="{&quot;isGlobalGroup&quot;:true,&quot;bounds&quot;:{&quot;x&quot;:73.18759411811882,&quot;y&quot;:114.99999999999997,&quot;width&quot;:403.6248117637624,&quot;height&quot;:240.00000000000003}}">
            <g data-paper-data="{&quot;isPrimaryText&quot;:true}" fill-rule="nonzero">
                <path d="M104.27914,314.67521v-8.03983h-31.09155v47.92495h8.10265v-22.80047h17.27308v-7.97702h-17.27308v-9.10762z"
                      data-paper-data="{&quot;glyphName&quot;:&quot;F&quot;,&quot;glyphIndex&quot;:0,&quot;firstGlyphOfWord&quot;:true,&quot;word&quot;:1}"
                      fill="#ffffff"></path>
                <path d="M120.35881,346.5833v-40.01074h-8.03983v47.98776h25.31292v-7.97702z"
                      data-paper-data="{&quot;glyphName&quot;:&quot;L&quot;,&quot;glyphIndex&quot;:1,&quot;word&quot;:1}"
                      fill="#ffffff"></path>
                <path d="M142.27992,354.56032h8.16546l2.57526,-5.84144h22.04673l2.57526,5.84144h8.10265l-21.73268,-49.24399zM164.0126,323.78283l7.47453,16.8334h-14.88626z"
                      data-paper-data="{&quot;glyphName&quot;:&quot;A&quot;,&quot;glyphIndex&quot;:2,&quot;word&quot;:1}"
                      fill="#ffffff"></path>
                <path d="M216.83682,334.46074c-1.38185,-3.07775 -4.08273,-6.1555 -7.53734,-7.78859l-7.66297,-3.51743c-1.57028,-0.69092 -2.57526,-2.32401 -2.57526,-4.33397c0,-2.63807 2.19839,-4.4596 4.77365,-4.4596c1.38185,0 2.70088,0.75373 3.51743,1.82152l0.5653,0.75373l7.41172,-3.39181l-0.62811,-1.1306c-2.19839,-3.95711 -6.65799,-6.21831 -11.05477,-6.21831c-6.84642,0 -12.81349,5.52739 -12.81349,12.37381c0,4.89927 2.57526,9.61011 7.53734,11.87132l7.2861,3.32899c2.38683,1.1306 4.08273,3.64305 4.08273,6.21831c0,4.08273 -3.26618,6.84642 -7.03486,6.84642c-2.32401,0 -4.64803,-1.44466 -5.71582,-3.51743l-0.50249,-0.94217l-7.47453,3.39181l0.5653,1.06779c2.63807,5.0249 7.72578,8.16546 13.37879,8.16546c8.54232,0 14.94907,-7.03486 14.94907,-15.26312c0,-1.75871 -0.37687,-3.64305 -1.06779,-5.27614z"
                      data-paper-data="{&quot;glyphName&quot;:&quot;S&quot;,&quot;glyphIndex&quot;:3,&quot;word&quot;:1}"
                      fill="#ffffff"></path>
                <path d="M252.38797,306.57256v17.21027h-17.77557v-17.21027h-8.03983v47.98776h8.03983v-22.80047h17.77557v22.80047h8.03983v-47.98776z"
                      data-paper-data="{&quot;glyphName&quot;:&quot;H&quot;,&quot;glyphIndex&quot;:4,&quot;word&quot;:1}"
                      fill="#ffffff"></path>
                <path d="M286.24321,316.43392c2.38683,-1.38185 5.15052,-2.07277 7.91421,-2.07277c4.33397,0 8.4167,1.6959 11.43164,4.71084l0.94217,0.94217l5.0249,-6.59518l-0.81655,-0.75373c-4.64803,-4.27116 -10.36385,-6.46955 -16.58216,-6.46955c-13.31598,0 -24.37075,11.11758 -24.37075,24.37075c0,12.37381 10.04979,24.43356 24.37075,24.43356c6.21831,0 11.99694,-2.38683 16.58216,-6.53237l0.81655,-0.75373l-5.0249,-6.59518l-0.94217,0.94217c-3.01494,3.01494 -7.09767,4.71084 -11.43164,4.71084c-9.04481,0 -16.20529,-7.60016 -16.20529,-16.20529c0,-5.71582 3.01494,-11.11758 8.29108,-14.13252z"
                      data-paper-data="{&quot;glyphName&quot;:&quot;C&quot;,&quot;glyphIndex&quot;:5,&quot;word&quot;:1}"
                      fill="#ffffff"></path>
                <path d="M315.8901,354.56032h8.16546l2.57526,-5.84144h22.04673l2.57526,5.84144h8.10265l-21.73268,-49.24399zM337.62277,323.78283l7.47453,16.8334h-14.88626z"
                      data-paper-data="{&quot;glyphName&quot;:&quot;A&quot;,&quot;glyphIndex&quot;:6,&quot;word&quot;:1}"
                      fill="#ffffff"></path>
                <path d="M396.47687,324.91343c0,-10.04979 -8.16546,-18.27806 -18.27806,-18.27806h-12.68786v47.92495h8.03983v-11.36883h4.64803c1.1306,0 2.2612,-0.12562 3.39181,-0.37687l7.41172,11.7457h9.61011l-9.48449,-15.01188c4.64803,-3.45462 7.34891,-8.85638 7.34891,-14.63501zM378.19881,335.15166h-4.64803v-20.47645h4.64803c5.65301,0 10.23823,4.58522 10.23823,10.23823c0,5.33895 -4.4596,10.23823 -10.23823,10.23823z"
                      data-paper-data="{&quot;glyphName&quot;:&quot;R&quot;,&quot;glyphIndex&quot;:7,&quot;word&quot;:1}"
                      fill="#ffffff"></path>
                <path d="M418.77485,306.63537h-12.81349v47.92495h12.81349c13.19035,0 23.93107,-10.74072 23.93107,-23.93107c0,-13.25316 -10.74072,-23.99388 -23.93107,-23.99388zM418.77485,346.52049h-4.77365v-31.84528h4.77365c8.73076,0 15.89124,7.16048 15.89124,15.95405c0,8.73076 -7.16048,15.89124 -15.89124,15.89124z"
                      data-paper-data="{&quot;glyphName&quot;:&quot;D&quot;,&quot;glyphIndex&quot;:8,&quot;word&quot;:1}"
                      fill="#ffffff"></path>
                <path d="M475.74462,334.46074c-1.38185,-3.07775 -4.08273,-6.1555 -7.53734,-7.78859l-7.66297,-3.51743c-1.57028,-0.69092 -2.57526,-2.32401 -2.57526,-4.33397c0,-2.63807 2.19839,-4.4596 4.77365,-4.4596c1.38185,0 2.70088,0.75373 3.51743,1.82152l0.5653,0.75373l7.41172,-3.39181l-0.62811,-1.1306c-2.19839,-3.95711 -6.65799,-6.21831 -11.05477,-6.21831c-6.84642,0 -12.81349,5.52739 -12.81349,12.37381c0,4.89927 2.57526,9.61011 7.53734,11.87132l7.2861,3.32899c2.38683,1.1306 4.08273,3.64305 4.08273,6.21831c0,4.08273 -3.26618,6.84642 -7.03486,6.84642c-2.32401,0 -4.64803,-1.44466 -5.71582,-3.51743l-0.50249,-0.94217l-7.47453,3.39181l0.5653,1.06779c2.63807,5.0249 7.72578,8.16546 13.37879,8.16546c8.54232,0 14.94907,-7.03486 14.94907,-15.26312c0,-1.75871 -0.37687,-3.64305 -1.06779,-5.27614z"
                      data-paper-data="{&quot;glyphName&quot;:&quot;S&quot;,&quot;glyphIndex&quot;:9,&quot;lastGlyphOfWord&quot;:true,&quot;word&quot;:1}"
                      fill="#ffffff"></path>
            </g>
            <g data-paper-data="{&quot;isIcon&quot;:&quot;true&quot;,&quot;iconType&quot;:&quot;icon&quot;,&quot;rawIconId&quot;:&quot;984453&quot;,&quot;selectedEffects&quot;:{&quot;container&quot;:&quot;&quot;,&quot;transformation&quot;:&quot;&quot;,&quot;pattern&quot;:&quot;&quot;},&quot;isDetailed&quot;:false,&quot;fillRule&quot;:&quot;evenodd&quot;,&quot;bounds&quot;:{&quot;x&quot;:205.18698324225238,&quot;y&quot;:114.99999999999997,&quot;width&quot;:139.62603351549524,&quot;height&quot;:159.01198798077021},&quot;iconStyle&quot;:&quot;standalone&quot;,&quot;suitableAsStandaloneIcon&quot;:true}"
               fill-rule="evenodd">
                <path d="M205.75498,183.43771l67.86967,-67.86975c0.08998,-0.09004 0.1879,-0.17044 0.29378,-0.24117c0.10588,-0.07073 0.21764,-0.13045 0.33528,-0.17918c0.11765,-0.04872 0.23891,-0.08551 0.36379,-0.11035c0.12488,-0.02484 0.25099,-0.03725 0.37833,-0.03725c0.12734,0 0.25345,0.01242 0.37833,0.03725c0.12488,0.02485 0.24614,0.06163 0.36379,0.11035c0.11765,0.04872 0.22934,0.10845 0.33509,0.17918c0.10588,0.07074 0.20387,0.15113 0.29398,0.24117l67.87238,67.87246c0.0901,0.08998 0.17052,0.1879 0.24123,0.29378c0.07071,0.10588 0.13045,0.21764 0.17918,0.33528c0.04874,0.11765 0.08552,0.23891 0.11034,0.36379c0.02482,0.12488 0.03723,0.25099 0.03723,0.37833c0,0.12734 -0.01241,0.25345 -0.03723,0.37833c-0.02482,0.12488 -0.0616,0.24614 -0.11034,0.36379c-0.04874,0.11765 -0.10846,0.22941 -0.17918,0.33528c-0.07071,0.10588 -0.15112,0.20381 -0.24123,0.29378l-8.32099,8.32118l8.32662,8.32662c0.18189,0.18189 0.32203,0.39158 0.42041,0.62907c0.09838,0.23761 0.14757,0.48499 0.14757,0.74212c0,0.25713 -0.04919,0.50451 -0.14757,0.74212c-0.09851,0.23761 -0.23865,0.4473 -0.42041,0.62907l-67.87297,67.87103c-0.0901,0.0901 -0.1881,0.17052 -0.29398,0.24123c-0.10588,0.07071 -0.21764,0.13045 -0.33528,0.17918c-0.11765,0.04874 -0.23891,0.08552 -0.36379,0.11034c-0.12475,0.02482 -0.2508,0.03723 -0.37814,0.03723c-0.12734,0 -0.25345,-0.01241 -0.37833,-0.03723c-0.12488,-0.02482 -0.24614,-0.0616 -0.36379,-0.11034c-0.11765,-0.04874 -0.22941,-0.10853 -0.33528,-0.17937c-0.10588,-0.07071 -0.20381,-0.15106 -0.29378,-0.24104l-67.8654,-67.87122c-0.0901,-0.0901 -0.17052,-0.1881 -0.24123,-0.29398c-0.07071,-0.10588 -0.13045,-0.21764 -0.17918,-0.33528c-0.04861,-0.11765 -0.08533,-0.23891 -0.11015,-0.36379c-0.02482,-0.12488 -0.03723,-0.25099 -0.03723,-0.37833c0,-0.12734 0.01247,-0.25345 0.03742,-0.37833c0.02482,-0.12488 0.0616,-0.24614 0.11034,-0.36379c0.04874,-0.11765 0.10846,-0.22934 0.17918,-0.33509c0.07085,-0.10588 0.15125,-0.20381 0.24123,-0.29378l8.32196,-8.31866l-8.33166,-8.33166c-0.0901,-0.0901 -0.17052,-0.18803 -0.24123,-0.29378c-0.07071,-0.10588 -0.13045,-0.21764 -0.17918,-0.33528c-0.04874,-0.11765 -0.08552,-0.23891 -0.11034,-0.36379c-0.02482,-0.12488 -0.03723,-0.25099 -0.03723,-0.37833c0,-0.12734 0.01241,-0.25345 0.03723,-0.37833c0.02482,-0.12488 0.0616,-0.24614 0.11034,-0.36379c0.04874,-0.11765 0.10846,-0.22941 0.17918,-0.33528c0.07071,-0.10588 0.15112,-0.20381 0.24123,-0.29378zM340.12586,184.81161l-65.12613,65.12613l-24.76381,-24.76148l-40.36736,-40.36736l65.1273,-65.1273zM276.37207,233.48736c-0.0901,0.0901 -0.1881,0.17052 -0.29398,0.24123c-0.10588,0.07071 -0.21764,0.13045 -0.33528,0.17918c-0.11765,0.04874 -0.23891,0.08552 -0.36379,0.11034c-0.12475,0.02482 -0.2508,0.03723 -0.37814,0.03723c-0.12734,0 -0.25345,-0.01241 -0.37833,-0.03723c-0.12488,-0.02482 -0.24614,-0.0616 -0.36379,-0.11034c-0.11765,-0.04874 -0.22941,-0.10853 -0.33528,-0.17937c-0.10588,-0.07071 -0.20381,-0.15106 -0.29378,-0.24104l-47.29835,-47.30223c-0.0901,-0.0901 -0.17052,-0.1881 -0.24123,-0.29398c-0.07071,-0.10575 -0.13045,-0.21745 -0.17918,-0.33509c-0.04874,-0.11765 -0.08552,-0.23891 -0.11034,-0.36379c-0.02482,-0.12488 -0.03723,-0.25099 -0.03723,-0.37833c0,-0.12734 0.01241,-0.25345 0.03723,-0.37833c0.02482,-0.12488 0.0616,-0.24614 0.11034,-0.36379c0.04874,-0.11765 0.10846,-0.22934 0.17918,-0.33509c0.07071,-0.10588 0.15112,-0.20387 0.24123,-0.29398l47.30029,-47.30417v0c0.18189,-0.18189 0.39165,-0.32203 0.62926,-0.42041c0.23748,-0.09838 0.4848,-0.14757 0.74193,-0.14757c0.25727,0 0.50464,0.04919 0.74212,0.14757c0.23761,0.09851 0.4473,0.23865 0.62907,0.42041l47.30223,47.30611c0.0901,0.0901 0.17052,0.1881 0.24123,0.29398c0.07071,0.10588 0.13045,0.21764 0.17918,0.33528c0.04874,0.11752 0.08552,0.23871 0.11034,0.3636c0.02482,0.12488 0.03723,0.25099 0.03723,0.37833c0,0.12734 -0.01241,0.25345 -0.03723,0.37833c-0.02482,0.12488 -0.0616,0.24614 -0.11034,0.36379c-0.04874,0.11765 -0.10853,0.22941 -0.17937,0.33528c-0.07071,0.10588 -0.15106,0.20381 -0.24104,0.29378zM275.00283,160.82115l23.98911,23.9926l-23.99105,23.9893l-23.98911,-23.98911zM282.54562,183.44295l-6.16715,-6.1654c-0.08998,-0.0901 -0.1879,-0.17052 -0.29378,-0.24123c-0.10588,-0.07071 -0.21764,-0.13045 -0.33528,-0.17918c-0.11765,-0.04861 -0.23891,-0.08533 -0.36379,-0.11015c-0.12488,-0.02482 -0.25099,-0.03723 -0.37833,-0.03723c-0.12734,0 -0.25345,0.01241 -0.37833,0.03723c-0.12488,0.02495 -0.24614,0.06179 -0.36379,0.11053c-0.11765,0.04874 -0.22941,0.10846 -0.33528,0.17918c-0.10588,0.07071 -0.20381,0.15112 -0.29378,0.24123l-6.16404,6.16559c-0.08998,0.0901 -0.17033,0.1881 -0.24104,0.29398c-0.07071,0.10588 -0.13045,0.21764 -0.17918,0.33528c-0.04874,0.11765 -0.08552,0.23891 -0.11034,0.36379c-0.02482,0.12488 -0.03717,0.25099 -0.03704,0.37833c0,0.12734 0.01241,0.25345 0.03723,0.37833c0.02482,0.12488 0.0616,0.24614 0.11034,0.36379c0.04874,0.11752 0.10853,0.22921 0.17937,0.33509c0.07071,0.10588 0.15106,0.20381 0.24104,0.29378l6.16715,6.1654c0.0901,0.0901 0.1881,0.17052 0.29398,0.24123c0.10588,0.07071 0.21764,0.13037 0.33528,0.17898c0.11765,0.04874 0.23891,0.08552 0.36379,0.11034c0.12488,0.02482 0.25099,0.03723 0.37833,0.03723c0.12734,0 0.25339,-0.01241 0.37814,-0.03723c0.12488,-0.02495 0.24614,-0.06179 0.36379,-0.11053c0.11765,-0.04874 0.22941,-0.10846 0.33528,-0.17918c0.10588,-0.07071 0.20381,-0.15112 0.29378,-0.24123l6.16404,-6.16559c0.08998,-0.0901 0.17033,-0.1881 0.24104,-0.29398c0.07071,-0.10588 0.13045,-0.21764 0.17918,-0.33528c0.04874,-0.11765 0.08552,-0.23891 0.11034,-0.36379c0.02482,-0.12488 0.03723,-0.25099 0.03723,-0.37833c0,-0.12734 -0.01247,-0.25345 -0.03742,-0.37833c-0.02482,-0.12488 -0.0616,-0.24614 -0.11034,-0.36379c-0.04874,-0.11752 -0.10846,-0.22921 -0.17918,-0.33509c-0.07085,-0.10588 -0.15125,-0.20381 -0.24123,-0.29378z"
                      data-paper-data="{&quot;isPathIcon&quot;:true}"></path>
            </g>
        </g>
    </g>
</svg>